<?xml version="1.0" encoding="UTF-8" standalone="yes"?>
<svg version="1.2" baseProfile="tiny-ps" viewBox="0 0 300 300" xmlns="http://www.w3.org/2000/svg">
  <title>bimi-svg-tiny-12-ps</title>
  <g>
    <g fill="#9ed0d2" transform="matrix(.1 0 0 -.1 0 300)">
      <path d="M2320 2919c-19-10-156-70-305-133-595-251-716-303-718-312l-2-9 165-20c91-11 171-24 177-28l13-8-48-69C1561 2279 474 756 413 673c-12-17-104-145-203-283L30 138l6-9 5-9h557l20 18c17 14 257 350 553 772 38 53 283 397 450 630 46 63 142 198 214 300s157 220 189 263l58 78 9-3c13-4 48-70 88-163l30-70 20-3 21-3v33c0 18 5 53 11 78 5 24 14 74 19 110s22 144 39 240c37 214 91 534 91 538 0 1-12 2-27 2l-28-1-35-20zm-295-1036c-241-345-295-425-295-438 0-9 45-106 99-215s96-201 93-204-111-6-241-7c-130 0-243-3-253-7l-16-7-136-191c-75-106-136-197-136-203v-11h996l116-234 117-234 38-6c43-7 541-1 549 6 2 3-196 406-441 897l-445 891h-9c-5 0-22-17-36-37z"/>
    </g>
    <g fill="#4cb4b2" transform="matrix(.1 0 0 -.1 0 300)">
      <path d="M2300 2905c-74-33-608-260-873-371l-138-57 8-8c5-4 76-14 158-24 83-9 162-20 177-23l28-7-358-500C473 756 43 154 36 143l-7-13h586l107 153c119 170 435 616 531 748 34 48 235 330 447 627l385 541 6-7c10-11 54-100 90-179l32-73h24l16 88c9 48 23 134 32 192 8 58 22 139 30 180s30 170 50 285c19 116 37 220 40 233l5 22-17-1c-10 0-52-15-93-34zm-261-1008c-9-12-82-115-162-229l-147-207v-16c0-9 45-107 100-217s100-202 100-204-109-4-242-5c-134 0-251-3-260-7l-16-7-136-192c-75-105-136-197-136-202v-11h996l117-235 117-235h591l-4 8c-2 4-203 406-446 895-243 488-446 887-449 887-4 0-14-11-23-23z"/>
    </g>
    <g fill="#6d7d98" transform="matrix(.1 0 0 -.1 0 300)">
      <path d="M2320 2906c-41-19-131-57-200-86-69-28-170-71-225-95s-188-80-295-125-217-92-244-103l-49-21 19-6c11-4 90-15 177-25l158-19-4-15c-2-9-244-351-537-761S481 757 352 575C223 394 100 222 79 194c-21-29-36-54-33-57 3-2 132-2 287 0l282 4 10 15c6 8 64 90 129 182 66 92 188 264 271 382 161 228 725 1018 933 1308 68 94 127 172 131 172 3 0 35-59 70-130l65-130 6 7c4 5 15 58 24 118 19 120 56 336 112 652 20 111 34 207 32 212l-3 10-75-33zm-281-1009c-9-12-82-115-162-229l-147-207v-16c0-9 45-107 100-217s100-202 100-204-109-4-242-5c-134 0-251-3-260-7l-16-7-136-192c-75-105-136-197-136-202v-11h996l117-235 117-235h591l-4 8c-2 4-203 406-446 895-243 488-446 887-449 887-4 0-14-11-23-23z"/>
    </g>
    <g fill="#029695" transform="matrix(.1 0 0 -.1 0 300)">
      <path d="M2320 2906c-41-19-131-57-200-86-69-28-170-71-225-95s-188-80-295-125-217-92-244-103l-49-21 19-6c11-4 90-15 177-25l158-19-4-15c-2-9-244-351-537-761S481 757 352 575C223 394 100 222 79 194c-21-29-36-54-33-57 3-2 132-2 287 0l282 4 10 15c6 8 64 90 129 182 66 92 188 264 271 382 161 228 725 1018 933 1308 68 94 127 172 131 172 3 0 35-59 70-130l65-130 6 7c4 5 15 58 24 118 19 120 56 336 112 652 20 111 34 207 32 212l-3 10-75-33zm-424-1217c-87-122-161-229-163-239l-5-17 101-201c56-111 101-206 101-212v-10l-257-2-257-3-138-195-138-195 497-5 498-5 120-237 120-238h575v9c0 16-880 1771-888 1771-5 0-80-100-166-221z"/>
    </g>
    <g fill="#3b5577" transform="matrix(.1 0 0 -.1 0 300)">
      <path d="M1896 1689c-87-122-161-229-163-239l-5-17 101-201c56-111 101-206 101-212v-10l-257-2-257-3-138-195-138-195 497-5 498-5 120-237 120-238h575v9c0 16-880 1771-888 1771-5 0-80-100-166-221z"/>
    </g>
    <g fill="#062e57" transform="matrix(.1 0 0 -.1 0 300)">
      <path d="M2023 1858c-22-29-97-134-168-233l-128-179 107-213c58-117 106-215 106-218s-116-5-258-5h-258l-34-47c-140-198-240-342-240-347 0-3 223-6 495-6h495l117-235 117-235h576l-441 883c-243 485-442 883-444 885s-21-20-42-50z"/>
    </g>
  </g>
</svg>